<svg xmlns="http://www.w3.org/2000/svg" viewBox="0 0 640 512">
  <path fill="#4f46e5" d="M504 352H136.4c-4.4 0-8 3.6-8 8l-.1 48c0 4.4 3.6 8 8 8H504c4.4 0 8-3.6 8-8v-48c0-4.4-3.6-8-8-8zm0 96H136.1c-4.4 0-8 3.6-8 8l-.1 48c0 4.4 3.6 8 8 8H504c4.4 0 8-3.6 8-8v-48c0-4.4-3.6-8-8-8zm0-192H136.6c-4.4 0-8 3.6-8 8l-.1 48c0 4.4 3.6 8 8 8H504c4.4 0 8-3.6 8-8v-48c0-4.4-3.6-8-8-8zM584 136H56C25.1 136 0 161.1 0 192v288c0 17.7 14.3 32 32 32h576c17.7 0 32-14.3 32-32V192c0-30.9-25.1-56-56-56zM159 216h323.7c15.7 0 28.6 11.2 30.7 26.1l11.4 82.5c2.4 17.4-11.4 33.1-29 33.1H144.3c-17.6 0-31.4-15.6-29-33.1l11.4-82.5c2.9-15 15.6-26.1 32.3-26.1zM608 64H32C14.3 64 0 49.7 0 32S14.3 0 32 0h576c17.7 0 32 14.3 32 32s-14.3 32-32 32z"/>
</svg>